<svg xmlns="http://www.w3.org/2000/svg" xml:space="preserve" style="enable-background:new 0 0 128 128"
	viewBox="0 0 128 128">
	<path
		d="M11.68 49.972v76.385h104.637V49.972H11.68zm28.219 63.976c-5.657 0-10.235-3.384-10.235-7.586 0-4.185 4.578-7.57 10.235-7.57s10.235 3.384 10.235 7.57c-.001 4.201-4.578 7.586-10.235 7.586zm36.933-6.246c-4.087 0-7.39-2.812-7.39-6.262 0-3.45 3.303-6.262 7.39-6.262s7.39 2.812 7.39 6.262c0 3.45-3.302 6.262-7.39 6.262zm7.39-32.879-34.089 4.545V67.63l34.089-4.561v11.754z"
		style="fill:#fbb500" />
	<path
		d="M111.771 49.4H82.702c0-10.333-8.371-18.704-18.704-18.704S45.294 39.067 45.294 49.4H16.225c0-26.372 21.385-47.773 47.773-47.773s47.773 21.401 47.773 47.773z"
		style="fill:#51a6ca" />
	<path
		d="M39.901 115.586c6.545 0 11.871-4.135 11.871-9.217 0-.126-.003-.252-.01-.378l.01-25.185 30.816-4.111v18.673c-1.564-1.134-3.571-1.817-5.757-1.817-4.978 0-9.028 3.54-9.028 7.891s4.05 7.891 9.028 7.891c4.977 0 9.027-3.54 9.027-7.891V61.205l-37.355 4.988v33.829c-2.164-1.767-5.22-2.871-8.601-2.871-6.545 0-11.871 4.135-11.871 9.217s5.325 9.218 11.87 9.218zm36.929-9.525c-3.175 0-5.758-2.072-5.758-4.621s2.583-4.621 5.758-4.621 5.757 2.072 5.757 4.621-2.582 4.621-5.757 4.621zM51.772 69.054l30.816-4.113v8.454l-30.816 4.111v-8.452zm-11.871 31.367c4.662 0 8.601 2.724 8.601 5.947 0 3.224-3.939 5.947-8.601 5.947s-8.601-2.724-8.601-5.947 3.939-5.947 8.601-5.947zm73.476-52.078C112.809 21.592 90.886 0 64 0S15.191 21.592 14.623 48.343h-4.576V128h107.906V48.343h-4.576zM64 3.27c25.083 0 45.539 20.125 46.107 45.073H84.288C83.731 37.62 74.858 29.062 64 29.062S44.269 37.62 43.712 48.343H17.893C18.461 23.395 38.917 3.27 64 3.27zm17.018 45.073H46.982c.552-8.919 7.962-16.011 17.018-16.011s16.466 7.092 17.018 16.011zm33.665 76.387H13.317V51.613h101.367v73.117z"
		style="fill:#3a3a3a" />
</svg>