<?xml version="1.0" encoding="iso-8859-1"?>
<svg version="1.1" xmlns="http://www.w3.org/2000/svg" xmlns:xlink="http://www.w3.org/1999/xlink" x="0px" y="0px"
    viewBox="0 0 128 128" style="enable-background:new 0 0 128 128;" xml:space="preserve">
    <g id="_x31_1">
        <path style="fill:#FBB500;" d="M11.68,49.972v76.385h104.637V49.972H11.68z M39.899,113.948c-5.657,0-10.235-3.384-10.235-7.586
		c0-4.185,4.578-7.57,10.235-7.57s10.235,3.384,10.235,7.57C50.133,110.563,45.556,113.948,39.899,113.948z M76.832,107.702
		c-4.087,0-7.39-2.812-7.39-6.262c0-3.45,3.303-6.262,7.39-6.262s7.39,2.812,7.39,6.262C84.222,104.89,80.92,107.702,76.832,107.702
		z M84.222,74.823l-34.089,4.545V67.63l34.089-4.561V74.823z" />
        <path style="fill:#51A6CA;" d="M111.771,49.4H82.702c0-10.333-8.371-18.704-18.704-18.704S45.294,39.067,45.294,49.4H16.225
		c0-26.372,21.385-47.773,47.773-47.773S111.771,23.028,111.771,49.4z" />
        <path style="fill:#3A3A3A;"
            d="M39.901,115.586c6.545,0,11.871-4.135,11.871-9.217c0-0.126-0.003-0.252-0.01-0.378l0.01-25.185
		l30.816-4.111v18.673c-1.564-1.134-3.571-1.817-5.757-1.817c-4.978,0-9.028,3.54-9.028,7.891s4.05,7.891,9.028,7.891
		c4.977,0,9.027-3.54,9.027-7.891V61.205l-37.355,4.988v33.829c-2.164-1.767-5.22-2.871-8.601-2.871
		c-6.545,0-11.871,4.135-11.871,9.217S33.356,115.586,39.901,115.586z M76.83,106.061c-3.175,0-5.758-2.072-5.758-4.621
		s2.583-4.621,5.758-4.621c3.175,0,5.757,2.072,5.757,4.621S80.005,106.061,76.83,106.061z M51.772,69.054l30.816-4.113v8.454
		l-30.816,4.111V69.054z M39.901,100.421c4.662,0,8.601,2.724,8.601,5.947c0,3.224-3.939,5.947-8.601,5.947
		s-8.601-2.724-8.601-5.947C31.3,103.145,35.239,100.421,39.901,100.421z M113.377,48.343C112.809,21.592,90.886,0,64,0
		S15.191,21.592,14.623,48.343h-4.576V128h107.906V48.343H113.377z M64,3.27c25.083,0,45.539,20.125,46.107,45.073H84.288
		C83.731,37.62,74.858,29.062,64,29.062S44.269,37.62,43.712,48.343H17.893C18.461,23.395,38.917,3.27,64,3.27z M81.018,48.343
		H46.982C47.534,39.424,54.944,32.332,64,32.332S80.466,39.424,81.018,48.343z M114.683,124.73H13.317V51.613h101.367V124.73z" />
    </g>
    <g id="Layer_1">
    </g>
</svg>